<svg xmlns="http://www.w3.org/2000/svg" width="32" height="32" viewBox="0 0 32 32">
  <!-- Идёт загрузка, но щёлкать можно: клинок и песочные часы в медальоне. Остриё — точка (2, 2). -->
  <defs>
    <linearGradient id="s" x1="0" y1="0" x2="1" y2="1">
      <stop offset="0" stop-color="#f6f2ea"/>
      <stop offset=".42" stop-color="#bdb8ae"/>
      <stop offset=".6" stop-color="#7f7b74"/>
      <stop offset="1" stop-color="#3c3b39"/>
    </linearGradient>
  </defs>
  <path d="M2 2 L2 24 L8 18.5 L12.5 28.5 L16.5 26.8 L12 16.8 L20.5 16.8 Z"
        fill="url(#s)" stroke="#050607" stroke-width="2.6" stroke-linejoin="round" paint-order="stroke"/>
  <path d="M3.4 6 L3.4 20.4" stroke="#ffffff" stroke-opacity=".72" stroke-width=".9" stroke-linecap="round"/>
  <circle cx="23.6" cy="23.6" r="6.9" fill="#1c1d21" stroke="#050607" stroke-width="2.2" paint-order="stroke"/>
  <path d="M20.6 19.4 H26.6 M20.6 27.8 H26.6" stroke="#cfc8b8" stroke-width="1.2" stroke-linecap="round"/>
  <path d="M21.4 19.6 C21.4 22.4 23.2 22.8 23.2 23.6 C23.2 24.4 21.4 24.8 21.4 27.6 H25.8 C25.8 24.8 24 24.4 24 23.6 C24 22.8 25.8 22.4 25.8 19.6 Z" fill="none" stroke="#f3eee2" stroke-width=".9" stroke-linejoin="round"/>
  <path d="M22.2 27.1 Q23.6 25.2 25 27.1 Z M22.5 20.6 H24.7 L23.6 22.2 Z" fill="#d7b25e"/>
</svg>
